:version 1.10
:name ASF
:units
  mass 1
  length 1
  angle deg
:documentation
  ASF file generated by Kaydara
:root
  axis xyz
  order  tx ty tz rx ry rz
  position 0 0 0
  orientation 0 0 0
:bonedata
  begin
    id 1
    name RightUpLegDummy
    direction -0.718183 -0.695806 0.00816078
    length 4.904
    axis 0 0 0 xyz
  end
  begin
    id 2
    name RightUpLeg
    direction 3.53373e-006 -0.995788 0.0916898
    length 17.4976
    axis -3.49089 -0.000906625 0.000286804 xyz
    dof rx ry rz
  end
  begin
    id 3
    name RightLeg
    direction 0.00371092 -0.995096 -0.0988419
    length 16.5821
    axis 3.68512 0.0193738 -0.131023 xyz
    dof rx ry rz
  end
  begin
    id 4
    name RightFoot
    direction 0.00079151 -0.46099 0.887405
    length 3.77069
    axis 4.81691e-005 -0.120479 -0.188788 xyz
    dof rx ry rz
  end
  begin
    id 5
    name RightToes
    direction 0 0 0
    length 0
    axis 0 0 0 xyz
    dof rx ry rz
  end
  begin
    id 6
    name SpineDummy
    direction 8.3039e-015 1 4.57515e-016
    length 4.6813
    axis 0 0 0 xyz
  end
  begin
    id 7
    name Spine
    direction -3.15643e-008 0.999988 0.00495137
    length 10.1015
    axis -0.001389 0.000121418 2.40972e-006 xyz
    dof rx ry rz
  end
  begin
    id 8
    name Spine1
    direction 0 0 0
    length 0
    axis -0.001389 0.000121451 1.30017e-006 xyz
    dof rx ry rz
  end
  begin
    id 9
    name HEadDummy
    direction -1.99912e-008 0.999999 0.00127422
    length 3.43865
    axis -0.001389 0.000121451 1.30017e-006 xyz
  end
  begin
    id 10
    name HEad
    direction 0 0 0
    length 0
    axis 0 0 0 xyz
    dof rx ry rz
  end
  begin
    id 11
    name LeftShoulder1Dummy
    direction 0.998891 -0.0402509 -0.0244456
    length 3.5433
    axis -0.001389 0.000121451 1.30017e-006 xyz
  end
  begin
    id 12
    name LeftShoulder1
    direction 0.99951 -0.000327763 0.0313091
    length 4.05031
    axis -0.001389 0.000121451 1.30017e-006 xyz
    dof rx ry rz
  end
  begin
    id 13
    name LeftArm
    direction 0.998561 -0.00100056 -0.0536182
    length 10.3537
    axis -23.1894 0.134784 0.967509 xyz
    dof rx ry rz
  end
  begin
    id 14
    name LeftForeArm
    direction 0.998903 0.00866432 0.046012
    length 8.70632
    axis -9.91835 -0.06569 -0.177794 xyz
    dof rx ry rz
  end
  begin
    id 15
    name LeftHand
    direction 0 0 0
    length 0
    axis 0 0 0 xyz
    dof rx ry rz
  end
  begin
    id 16
    name RightShoulderDummy
    direction -0.998891 -0.0402509 -0.0244414
    length 3.5433
    axis -0.001389 0.000121451 1.30017e-006 xyz
  end
  begin
    id 17
    name RightShoulder
    direction -0.99951 -0.000327807 0.0313133
    length 4.05031
    axis 0.215806 0.000203643 -0.0068026 xyz
    dof rx ry rz
  end
  begin
    id 18
    name RightArm
    direction -0.998573 -0.000999564 -0.053403
    length 10.3947
    axis -23.2009 -0.134239 -0.964101 xyz
    dof rx ry rz
  end
  begin
    id 19
    name RightForeArm
    direction -0.998898 0.00868028 0.0461306
    length 8.68355
    axis -9.92322 0.0658061 0.178868 xyz
    dof rx ry rz
  end
  begin
    id 20
    name RightHand
    direction 0 0 0
    length 0
    axis 0 0 0 xyz
    dof rx ry rz
  end
  begin
    id 21
    name LeftUpLegDummy
    direction 0.718183 -0.695806 0.00816078
    length 4.904
    axis 0 0 0 xyz
  end
  begin
    id 22
    name LeftUpLeg
    direction -6.81752e-006 -0.995793 0.0916337
    length 17.4976
    axis -3.48766 0.00143442 -0.000524262 xyz
    dof rx ry rz
  end
  begin
    id 23
    name LeftLeg
    direction -0.00601358 -0.995091 -0.0987824
    length 16.5821
    axis 3.68178 -0.00654042 -0.000285133 xyz
    dof rx ry rz
  end
  begin
    id 24
    name LeftFoot
    direction -0.00417578 -0.460984 0.887399
    length 3.77069
    axis 1.87233e-006 4.66016e-005 -8.6538e-006 xyz
    dof rx ry rz
  end
  begin
    id 25
    name LeftToes
    direction 0 0 0
    length 0
    axis 0 0 0 xyz
    dof rx ry rz
  end
:hierarchy
  begin
    root RightUpLegDummy SpineDummy LeftUpLegDummy
    RightUpLegDummy RightUpLeg
    RightUpLeg RightLeg
    RightLeg RightFoot
    RightFoot RightToes
    SpineDummy Spine
    Spine Spine1
    Spine1 HEadDummy LeftShoulder1Dummy RightShoulderDummy
    HEadDummy HEad
    LeftShoulder1Dummy LeftShoulder1
    LeftShoulder1 LeftArm
    LeftArm LeftForeArm
    LeftForeArm LeftHand
    RightShoulderDummy RightShoulder
    RightShoulder RightArm
    RightArm RightForeArm
    RightForeArm RightHand
    LeftUpLegDummy LeftUpLeg
    LeftUpLeg LeftLeg
    LeftLeg LeftFoot
    LeftFoot LeftToes
  end

:SAMPLES-PER-SECOND 30
:FULLY-SPECIFIED
:DEGREES
584
root  33.275 38.5007 6.4615 30.0947 79.1586 43.3683
RightUpLeg  -6.87434 -7.55984 -23.0003
RightLeg  27.8757 -2.43313 -1.62276
RightFoot  -3.26462 -0.576171 7.83644
RightToes  0.000481921 0.542163 -0.142578
Spine  17.7825 1.03613 2.70747
Spine1  17.3038 3.06917 -5.07964
HEad  13.7928 -9.97545 4.28339
LeftShoulder1  1.79937 -10.0269 -5.51332
LeftArm  -45.1697 -73.8428 -40.6131
LeftForeArm  144.345 -75.2402 -138.93
LeftHand  -0.25398 0.0180481 5.50724
RightShoulder  0.62668 6.32701 -2.30932
RightArm  -43.5439 65.9216 43.1919
RightForeArm  115.568 72.5385 140.834
RightHand  -2.72506 9.95482 -20.8526
LeftUpLeg  0.0566312 25.4061 -1.27426
LeftLeg  27.1492 7.13328 4.31285
LeftFoot  -11.6351 0.0677782 -0.735642
LeftToes  1.06244e-005 4.65869e-005 -8.65518e-006
585
root  33.2634 38.5023 6.39911 30.0535 79.0401 43.2245
RightUpLeg  -7.02233 -7.18856 -23.0413
RightLeg  27.7541 -2.62147 -1.72258
RightFoot  -3.14937 -0.57931 7.77545
RightToes  0.000481921 0.542163 -0.142578
Spine  17.3429 0.740896 2.63671
Spine1  17.9921 2.72138 -4.973
HEad  13.9488 -9.04517 3.93128
LeftShoulder1  1.95627 -10.3443 -6.43965
LeftArm  -42.1022 -72.7201 -42.8317
LeftForeArm  144.368 -75.3093 -138.738
LeftHand  -0.25398 0.0180481 5.50724
RightShoulder  0.818411 6.9269 -0.631769
RightArm  -39.89 64.7908 45.5826
RightForeArm  116.002 72.5879 140.782
RightHand  -2.63601 9.58923 -20.6689
LeftUpLeg  0.00682963 25.6982 -1.41936
LeftLeg  26.9967 7.03844 4.23408
LeftFoot  -11.6788 0.06822 -0.625744
LeftToes  1.06244e-005 4.65869e-005 -8.65518e-006
586
root  33.3046 38.6818 6.34177 28.6212 78.8304 41.1504
RightUpLeg  -6.81186 -6.96547 -22.6684
RightLeg  25.8804 -2.81673 -1.70967
RightFoot  -2.34907 -0.629523 7.79088
RightToes  0.000481921 0.542163 -0.142578
Spine  16.8068 0.464117 2.9855
Spine1  17.7656 2.41833 -4.91905
HEad  14.7575 -8.0833 3.23926
LeftShoulder1  2.27004 -11.0105 -8.1327
LeftArm  -39.0661 -69.8378 -44.183
LeftForeArm  145.638 -75.1113 -139.547
LeftHand  -0.25398 0.0180481 5.50724
RightShoulder  1.06702 7.4054 1.57452
RightArm  -36.2878 62.4342 47.4982
RightForeArm  115.744 72.4255 141.13
RightHand  -2.69425 9.63959 -21.0336
LeftUpLeg  0.182607 25.8071 -1.59717
LeftLeg  25.285 7.35311 4.16828
LeftFoot  -10.9335 0.0680158 -0.666521
LeftToes  1.06244e-005 4.65869e-005 -8.65518e-006
587
root  33.3842 38.958 6.31458 25.764 78.144 37.2495
RightUpLeg  -6.73417 -6.63083 -21.9951
RightLeg  23.1066 -2.86637 -1.55698
RightFoot  -1.09609 -0.674702 7.43841
RightToes  0.000481921 0.542163 -0.142578
Spine  16.3476 0.416998 3.2234
Spine1  16.7424 2.2165 -4.6086
HEad  15.7356 -6.96486 2.35311
LeftShoulder1  2.69918 -11.7247 -10.4582
LeftArm  -36.3406 -65.0173 -44.322
LeftForeArm  148.339 -74.3338 -142.081
LeftHand  -0.25398 0.0180481 5.50724
RightShoulder  1.3132 7.68597 3.79406
RightArm  -32.6513 58.7939 49.127
RightForeArm  115.159 71.878 142.295
RightHand  -2.87064 9.88799 -22.0066
LeftUpLeg  0.642718 26.0022 -1.61771
LeftLeg  22.4577 8.11496 3.74297
LeftFoot  -9.73918 0.0689684 -0.751501
LeftToes  1.06244e-005 4.65869e-005 -8.65518e-006
588
root  33.496 39.2581 6.3349 22.3206 77.3009 32.4037
RightUpLeg  -6.76532 -6.51628 -20.9939
RightLeg  19.836 -2.68483 -1.27498
RightFoot  0.358659 -0.705819 6.90352
RightToes  0.000481921 0.542163 -0.142578
Spine  15.6357 0.389631 3.31091
Spine1  15.636 1.86977 -3.81832
HEad  16.2659 -5.48491 1.38917
LeftShoulder1  3.23583 -12.2167 -13.613
LeftArm  -33.7312 -58.6504 -43.0626
LeftForeArm  152.456 -72.8451 -146.093
LeftHand  -0.25398 0.0180481 5.50724
RightShoulder  1.55749 7.8409 6.03902
RightArm  -28.496 54.2771 50.6777
RightForeArm  115.503 70.8135 144.563
RightHand  -2.92215 9.59909 -22.7929
LeftUpLeg  1.08485 23.1844 -1.30583
LeftLeg  19.3463 11.9688 2.55069
LeftFoot  -8.44035 0.0750977 -0.955603
LeftToes  1.06244e-005 4.65869e-005 -8.65518e-006
589
root  33.6274 39.5202 6.40663 19.0615 76.5986 27.5448
RightUpLeg  -6.74335 -7.06523 -19.7593
RightLeg  16.3897 -2.00671 -0.961846
RightFoot  1.73269 -0.771755 6.82448
RightToes  0.000481921 0.542163 -0.142578
Spine  14.7589 0.203251 3.28694
Spine1  14.7767 1.23627 -2.60763
HEad  15.8628 -3.68723 0.568237
LeftShoulder1  3.96007 -12.6345 -17.9159
LeftArm  -31.0438 -51.1647 -40.3885
LeftForeArm  157.357 -70.6908 -150.644
LeftHand  -0.25398 0.0180481 5.50724
RightShoulder  1.90009 8.09698 9.00646
RightArm  -24.0071 49.2939 51.3682
RightForeArm  117.866 69.2345 147.706
RightHand  -2.74468 8.76892 -22.6544
LeftUpLeg  1.16426 17.2666 -0.818326
LeftLeg  16.5856 18.6562 1.01185
LeftFoot  -7.29058 0.0940164 -1.41674
LeftToes  1.06244e-005 4.65869e-005 -8.65518e-006
590
root  33.7609 39.6975 6.51844 16.377 75.7836 23.3455
RightUpLeg  -6.89095 -8.53885 -18.5266
RightLeg  13.4813 -0.244241 -0.746088
RightFoot  2.70254 -0.887268 7.3435
RightToes  0.000481921 0.542163 -0.142578
Spine  14.2117 -0.0356549 3.00816
Spine1  14.1317 0.510162 -1.26891
HEad  14.2008 -1.78945 0.18154
LeftShoulder1  4.89671 -13.081 -23.2388
LeftArm  -28.1727 -42.9849 -36.6954
LeftForeArm  161.648 -67.9552 -154.928
LeftHand  -0.25398 0.0180481 5.50724
RightShoulder  2.38426 8.37777 13.1083
RightArm  -19.6207 44.1641 50.6948
RightForeArm  121.807 67.1285 151.279
RightHand  -2.58133 8.25418 -22.1329
LeftUpLeg  0.861707 13.2448 -0.339398
LeftLeg  14.614 23.5307 0.0272459
LeftFoot  -6.51846 0.125107 -2.043
LeftToes  1.06244e-005 4.65869e-005 -8.65518e-006
591
root  33.8765 39.7778 6.65013 14.3502 74.6315 20.1184
RightUpLeg  -7.48424 -9.73745 -17.6118
RightLeg  11.862 1.60082 -0.415793
RightFoot  3.09641 -0.982738 7.91575
RightToes  0.000481921 0.542163 -0.142578
Spine  14.2635 -0.256631 2.56747
Spine1  13.8387 -0.1037 -0.172324
HEad  11.6044 0.236575 -0.042862
LeftShoulder1  6.0016 -13.5176 -29.1881
LeftArm  -25.1356 -34.7465 -32.4226
LeftForeArm  164.362 -64.7009 -158.625
LeftHand  -0.25398 0.0180481 5.50724
RightShoulder  2.94906 8.50539 18.0215
RightArm  -15.3524 38.9906 49.2465
RightForeArm  126.541 64.4106 154.988
RightHand  -2.53024 8.15056 -21.8703
LeftUpLeg  0.316286 12.0046 0.0505748
LeftLeg  13.8463 25.9519 -0.16753
LeftFoot  -6.26717 0.156682 -2.69114
LeftToes  1.06244e-005 4.65869e-005 -8.65518e-006
